# ProBuilder 4.5.2
# https://unity3d.com/unity/features/worldbuilding/probuilder
# 10/6/2021 2:26:23 PM

mtllib ./Shield.mtl
o Shield

g Shield
v -0.1335935 0 0.09308887
v -0.3464062 0 0.09308887
v -0.1335935 0.03000069 0.09308887
v -0.3464062 0.03000069 0.09308887
v -0.4684713 0 -0.2326426
v -0.4684712 0 -0.5433576
v -0.4684713 0.03000069 -0.2326426
v -0.4684712 0.03000069 -0.5433576
v -0.3843045 0 -0.8690891
v -0.09569535 0 -0.8690891
v -0.3843045 0.02999878 -0.8690891
v -0.09569535 0.02999878 -0.8690891
v -0.01152822 0 -0.5433576
v -0.01152834 0 -0.2326426
v -0.01152822 0.03000069 -0.5433576
v -0.01152834 0.03000069 -0.2326426

vt -0.1335935 0
vt -0.3464062 0
vt -0.1335935 0.03000069
vt -0.3464062 0.03000069
vt -0.2326424 0
vt -0.5433574 0
vt -0.2326424 0.03000069
vt -0.5433574 0.03000069
vt 0.3843045 0
vt 0.09569535 0
vt 0.3843045 0.02999878
vt 0.09569535 0.02999878
vt 0.5433576 0
vt 0.2326426 0
vt 0.5433576 0.03000069
vt 0.2326426 0.03000069
vt 0.01152834 -0.2326426
vt 0.4684713 -0.2326426
vt 0.01152822 -0.5433576
vt 0.4684712 -0.5433576
vt -0.01152822 -0.5433576
vt -0.4684712 -0.5433576
vt -0.01152834 -0.2326426
vt -0.4684713 -0.2326426
vt -0.3843045 -0.8690891
vt -0.09569535 -0.8690891
vt -0.4088788 0.03000069
vt -0.4088788 0
vt -0.7453086 0.02999878
vt -0.7453086 0
vt 0.528963 0
vt 0.528963 0.03000069
vt 0.865393 0
vt 0.865393 0.02999878
vt 0.09569535 -0.8690889
vt 0.3843045 -0.8690889
vt -0.1335935 0.09308887
vt -0.3464062 0.09308887
vt 0.2138031 0.03000069
vt 0.2138031 0
vt -0.1340487 0.03000069
vt -0.1340487 0
vt -0.3822405 0
vt -0.3822405 0.03000069
vt -0.03438865 0
vt -0.03438865 0.03000069
vt 0.3464062 0.09308887
vt 0.1335935 0.09308887

vn 0 0 1
vn -1 0 -3.836612E-07
vn 0 0 -1
vn 1 0 3.836612E-07
vn 0 1 0
vn 0 -1 0
vn -0.9682004 0 -0.250176
vn 0.9682001 0 -0.2501773
vn 0.9364086 0 0.3509115
vn -0.9364087 0 0.3509114

usemtl Collider
f 3/3/1 4/4/1 2/2/1 1/1/1
f 7/7/2 8/8/2 6/6/2 5/5/2
f 11/11/3 12/12/3 10/10/3 9/9/3
f 15/15/4 16/16/4 14/14/4 13/13/4
f 15/19/5 8/20/5 7/18/5 16/17/5
f 14/23/6 5/24/6 6/22/6 13/21/6
f 9/25/6 10/26/6 13/21/6 6/22/6
f 11/29/7 9/30/7 6/28/7 8/27/7
f 10/33/8 12/34/8 15/32/8 13/31/8
f 12/35/5 11/36/5 8/20/5 15/19/5
f 1/37/6 2/38/6 5/24/6 14/23/6
f 3/41/9 1/42/9 14/40/9 16/39/9
f 2/45/10 4/46/10 7/44/10 5/43/10
f 4/47/5 3/48/5 16/17/5 7/18/5

